<?xml version="1.0" encoding="UTF-8" standalone="no"?>
<!-- Created with Inkscape (http://www.inkscape.org/) -->

<svg
   width="335.22684mm"
   height="46.532608mm"
   viewBox="0 0 335.22684 46.532608"
   version="1.1"
   id="svg1"
   inkscape:version="1.4.3 (0d15f75, 2025-12-25)"
   sodipodi:docname="texto.svg"
   xmlns:inkscape="http://www.inkscape.org/namespaces/inkscape"
   xmlns:sodipodi="http://sodipodi.sourceforge.net/DTD/sodipodi-0.dtd"
   xmlns="http://www.w3.org/2000/svg"
   xmlns:svg="http://www.w3.org/2000/svg">
  <sodipodi:namedview
     id="namedview1"
     pagecolor="#ffffff"
     bordercolor="#000000"
     borderopacity="0.25"
     inkscape:showpageshadow="2"
     inkscape:pageopacity="0.0"
     inkscape:pagecheckerboard="0"
     inkscape:deskcolor="#d1d1d1"
     inkscape:document-units="mm"
     inkscape:zoom="0.50835204"
     inkscape:cx="370.80603"
     inkscape:cy="30.490681"
     inkscape:window-width="1920"
     inkscape:window-height="1009"
     inkscape:window-x="-8"
     inkscape:window-y="-8"
     inkscape:window-maximized="1"
     inkscape:current-layer="layer1"
     showguides="true" />
  <defs
     id="defs1" />
  <g
     inkscape:label="Layer 1"
     inkscape:groupmode="layer"
     id="layer1"
     transform="translate(96.30833,-75.702254)">
    <path
       d="m -91.11192,121.82708 c -2.48228,-0.4933 -5.19641,-1.78016 -5.19641,-2.46379 0,-0.67914 1.85722,-4.79871 2.16339,-4.79871 0.1295,0 0.8248,0.29865 1.54513,0.66367 4.2366,2.14685 10.00363,1.85691 9.11521,-0.45826 -0.21868,-0.56989 -1.04869,-0.89087 -4.66323,-1.80341 -3.70119,-0.9344 -5.36985,-1.70232 -6.50266,-2.99252 -1.11334,-1.26801 -1.48313,-2.55543 -1.33375,-4.64329 0.2063,-2.88323 1.43884,-4.53793 4.43664,-5.956239 3.067034,-1.256865 6.890401,-1.269912 10.12772,-0.5782 2.11075,0.49178 3.89697,1.342759 3.89697,1.856559 0,0.12677 -1.603885,5.06092 -2.3506,4.8225 -0.23514,-0.0751 -1.23662,-0.44198 -2.2255,-0.81533 -3.39494,-1.28173 -7.26188,-0.72881 -7.01383,1.00289 0.108,0.75394 0.97358,1.1267 4.79198,2.06364 3.58442,0.87952 5.43329,1.7506 6.52387,3.07367 1.83796,2.22977 1.73056,5.90194 -0.24263,8.29577 -0.93727,1.13706 -3.36404,2.45333 -5.25101,2.84812 -1.85204,0.38749 -5.56175,0.33196 -7.82129,-0.11707 z m 154.73325,0.0414 c -2.04904,-0.4978 -3.72254,-1.41563 -5.38132,-2.95137 -4.53909,-4.20239 -4.9936,-11.2959 -1.04505,-16.30993 1.07515,-1.36527 3.65924,-3.020829 5.69793,-3.650519 2.06145,-0.63672 6.10501,-0.717 8.18737,-0.16255 2.5005,0.66579 5.91349,2.942459 5.91349,3.944659 0,0.51941 -3.67616,3.88835 -4.24294,3.88835 -0.23502,0 -0.71596,-0.31336 -1.06875,-0.69636 -1.49877,-1.62712 -4.57949,-2.16789 -6.74557,-1.18408 -2.9787,1.3529 -4.17457,5.32833 -2.56097,8.51345 1.81348,3.57966 6.40657,4.18112 9.5029,1.24439 0.96646,-0.91664 0.82904,-0.97097 3.4798,1.37573 0.89954,0.79636 1.63553,1.64571 1.63553,1.88744 0,1.13051 -3.89206,3.60529 -6.56146,4.17212 -1.79118,0.38035 -5.09415,0.34576 -6.81096,-0.0713 z m 23.232,-0.0227 c -4.29578,-1.20683 -7.41835,-4.06874 -8.56761,-7.85243 -0.80396,-2.64685 -0.64021,-6.32643 0.37998,-8.53835 2.10081,-4.55486 6.26298,-7.029939 11.8218,-7.029939 5.55882,0 9.721,2.475079 11.8218,7.029939 1.01812,2.20744 1.18381,5.89194 0.38344,8.52696 -1.02489,3.37425 -3.67056,6.0557 -7.38042,7.48024 -1.97321,0.75769 -6.411,0.95892 -8.45899,0.38358 z m 5.3793,-5.81868 c 2.99178,-0.88846 4.6666,-4.32153 3.71133,-7.60753 -0.73523,-2.5291 -2.88527,-4.17368 -5.45646,-4.17368 -5.43422,0 -7.79134,7.10768 -3.58261,10.803 0.52057,0.45706 1.27172,0.90269 1.66924,0.99028 0.39751,0.0876 0.84181,0.19898 0.98733,0.24752 0.58,0.19348 1.42062,0.11178 2.67117,-0.25959 z m 85.39152,5.83406 c -3.46298,-0.83985 -6.53914,-3.28726 -8.07192,-6.42207 -1.39842,-2.86004 -1.23411,-7.66815 -0.0314,-10.20731 1.47285,-3.10939 4.42104,-5.520559 7.88231,-6.446529 2.04915,-0.5482 6.09904,-0.46135 8.15921,0.17497 3.4747,1.073229 6.39099,3.702339 7.62394,6.873169 0.69503,1.78746 0.95351,5.5398 0.50446,7.32317 -1.06532,4.23076 -4.44494,7.51801 -8.93042,8.68633 -1.80582,0.47036 -5.23585,0.47914 -7.13617,0.0183 z m 5.39008,-5.84282 c 3.24367,-0.96327 4.9265,-5.24988 3.32324,-8.46516 -1.92571,-3.86194 -7.11269,-4.48388 -9.5666,-1.14708 -2.44874,3.32977 -1.14232,8.31725 2.52066,9.62306 1.33375,0.47547 2.0926,0.47327 3.7227,-0.0108 z m 21.59742,5.84282 c -5.3783,-1.30436 -9.08563,-6.01456 -9.07496,-11.52985 0.009,-4.86366 2.42683,-8.71102 6.76911,-10.773159 1.92824,-0.91572 2.24315,-0.98227 5.13597,-1.08541 3.2653,-0.11642 5.04413,0.20839 7.2198,1.31834 1.23248,0.628759 3.3551,2.533929 3.3551,3.011379 0,0.46451 -3.73232,3.81809 -4.25336,3.82175 -0.22929,0.002 -0.70554,-0.31043 -1.05833,-0.69343 -2.0772,-2.25508 -6.3526,-2.22103 -8.49875,0.0677 -1.03731,1.10621 -1.53539,2.50997 -1.53539,4.32722 0,2.94349 1.65572,5.20809 4.26554,5.83418 2.14964,0.51569 4.07986,-0.0143 5.91241,-1.62326 l 0.92469,-0.81188 0.65446,0.5148 c 1.65206,1.29951 3.58873,3.23262 3.58873,3.58213 0,0.55254 -1.87126,2.16596 -3.42564,2.95362 -2.79174,1.41469 -6.8174,1.85272 -9.97938,1.08588 z M -74.08333,98.689581 h 17.99167 v 5.556249 h -11.1125 v 3.175 h 9.78958 v 5.29167 h -9.78958 v 3.70417 h 11.64166 v 5.29166 h -18.52083 z m 21.56358,0.13229 5.452488,-0.04237 7.816852,12.570819 7.516259,-12.505885 5.672731,-0.02251 0.138,22.902795 -6.48793,-0.1486 -0.26458,-10.46702 -5.107257,8.32007 -3.316023,0.0302 -5.07047,-8.26519 -0.1432,10.51415 h -6.34466 z m 30.369776,22.886469 c -0.04317,-5.24128 -0.04784,-5.9771 0.0573,-22.886469 l 5.68855,-0.0766 c 3.32108,-0.0447 6.39832,0.0448 7.39402,0.21521 3.18202,0.54447 5.68566,2.202249 6.98324,4.623899 0.47073,0.87854 0.56747,1.50784 0.56939,3.70417 0.002,2.30049 -0.0837,2.81425 -0.65666,3.93615 -0.84561,1.65578 -2.56865,3.16558 -4.46149,3.90934 -1.20003,0.47154 -2.18418,0.60858 -4.99986,0.69624 l -3.50573,0.10915 v 5.76891 z M -9.46156,109.69473 c 1.0722,-0.70894 1.1185232,-2.16798 0.81056,-3.54619 -0.3816271,-1.70787 -1.52812,-1.67145 -4.21716,-1.83921 l -2.21336,-0.13809 v 6.22313 l 2.4474,-0.11008 c 1.77819,-0.08 2.64568,-0.24119 3.17256,-0.58956 z M 1.1904,98.821871 l 5.68854,-0.0766 c 3.32108,-0.0447 6.39833,0.0448 7.39402,0.21521 3.18087,0.54428 5.68106,2.199209 6.98555,4.623899 0.47428,0.88156 0.56939,1.50029 0.56939,3.70417 0,2.46917 -0.0548,2.743 -0.81995,4.10104 -0.45098,0.80037 -1.3069,1.8124 -1.90206,2.24896 -0.59517,0.43656 -1.08939,0.89133 -1.09828,1.01059 -0.02573,0.34099 4.412337,7.0592 4.412337,7.0592 H 15.09721 l -4.02468,-5.82083 H 8.20186 v 5.82083 H 1.1676391 Z m 12.63198,10.872489 c 0.41746,-0.27602 0.85342,-0.90602 1.02633,-1.48314 0.25467,-0.85002 0.22464,-1.1588 -0.19657,-2.02131 -0.64454,-1.31983 -1.52701,-1.71151 -4.23693,-1.88058 l -2.21335,-0.13809 v 3.11157 3.11156 l 2.44739,-0.11008 c 1.77897,-0.08 2.64561,-0.24113 3.17313,-0.58993 z M 25.00294,98.821871 H 42.9946 v 5.291669 l -11.24479,0.1428 v 3.1528 l 9.92188,0.144 0.1514,5.15938 H 31.74976 v 3.70417 h 11.64167 v 5.29166 H 24.86497 Z m 81.02172,0.0911 5.73363,-0.09109 7.63594,12.229749 7.47321,-12.229749 h 5.55625 l 0.1379,22.886459 h -6.35562 l -0.008,-10.98021 -5.16817,8.73125 -3.37707,0.0108 -5.07308,-8.10959 -0.1434,10.34769 -6.41526,7e-5 z m 37.1827,-0.23186 h 7.21543 l 5.8523,13.686109 6.13002,-13.686109 h 6.97984 l -9.7963,23.027229 -6.82748,0.0147 z m 77.19033,0.0015 18.12396,0.1392 v 5.291669 l -11.24479,0.1428 v 3.1528 l 9.92187,0.144 v 5.02709 l -9.92187,0.144 v 3.69249 h 11.64166 v 5.29166 h -18.52083 z m 2.24919,-1.31597 c -0.21776,-0.35234 -0.0765,-0.56341 2.08037,-3.10886 l 1.8496,-2.18281 h 5.70197 l 1.99705,2.31214 c 2.60781,3.01926 2.60379,3.24411 -0.058,3.24411 h -2.05506 l -2.73686,-2.39414 -1.34784,1.19707 c -1.34063,1.19067 -1.35831,1.19707 -3.30776,1.19707 -1.07796,0 -2.03352,-0.11906 -2.12345,-0.26458 z M -39.0333,89.373351 c -0.0741,-0.19308 -0.10277,-3.26584 -0.0637,-6.82835 l 0.071,-6.47729 1.26127,-0.0808 1.26127,-0.0808 -0.0707,6.8277 -0.0706,6.8277 -1.1269,0.0815 c -0.75395,0.0545 -1.17148,-0.0347 -1.26161,-0.26958 z m 21.23062,0.1566 c -0.10394,-0.10394 -0.18898,-3.20523 -0.18898,-6.89176 v -6.70277 h 1.01082 c 0.98881,0 1.08821,0.096 4.56406,4.40958 l 3.55324,4.40959 0.13229,-4.34344 0.13229,-4.34344 1.26127,-0.0808 1.26127,-0.0808 -0.0706,6.8277 -0.0707,6.8277 -0.95589,0.08 c -0.94598,0.0791 -0.99465,0.0315 -4.69,-4.58967 l -3.7341,-4.66962 -0.0725,4.58967 -0.0725,4.58967 -0.93549,0.0787 c -0.51453,0.0433 -1.02054,-0.006 -1.12448,-0.11025 z m 31.8256,-0.01658 c -0.21828,-0.0762 -0.90289,-0.3751 -1.52136,-0.66417 -1.21712,-0.56888 -1.45132,-1.25315 -0.75488,-2.20559 0.36108,-0.4938 0.40174,-0.4904 1.76445,0.14786 2.65504,1.24355 5.80346,0.73675 5.80346,-0.93418 0,-0.88917 -0.70856,-1.32446 -3.39262,-2.08418 -3.58577,-1.01496 -4.42866,-1.80327 -4.39463,-4.1101 0.0225,-1.52253 0.65793,-2.52529 2.07297,-3.27113 2.22781,-1.17421 7.56636,-0.48978 7.56636,0.97006 0,0.32395 -0.16164,0.81006 -0.35921,1.08025 -0.34203,0.46775 -0.41186,0.47017 -1.46056,0.0506 -1.85728,-0.74314 -4.47554,-0.50857 -5.12149,0.45883 -0.38119,0.57088 -0.193,1.4271 0.39891,1.81494 0.33078,0.21673 1.61062,0.65566 2.8441,0.97539 2.58707,0.6706 3.79056,1.46876 4.23214,2.80678 0.62403,1.89083 -0.27113,3.75233 -2.23289,4.64331 -1.04442,0.47436 -4.43382,0.67441 -5.44475,0.32136 z m 27.7055,0.01644 c -0.10386,-0.10386 -0.18883,-2.72884 -0.18883,-5.83328 v -5.64445 h -2.24896 -2.24896 v -1.06349 -1.06349 l 5.75469,0.0713 5.75468,0.0713 v 0.92604 0.92604 l -2.17768,0.0768 -2.17768,0.0768 -0.0713,5.74407 -0.0713,5.74407 -1.06793,0.0786 c -0.58737,0.0432 -1.15291,-0.006 -1.25678,-0.11024 z m 23.62367,-6.70001 v -6.89438 h 1.19509 1.19509 l -0.0706,6.81302 -0.0706,6.81302 -1.12448,0.0814 -1.12447,0.0814 z m 23.73689,6.70015 C 88.98504,89.426011 88.9,86.800971 88.9,83.696531 v -5.64445 h -2.24896 -2.24895 v -1.05833 -1.05833 h 5.68854 5.68854 v 1.05833 1.05833 h -2.2438 -2.2438 l -0.0713,5.75469 -0.0713,5.75469 -0.9355,0.0787 c -0.51452,0.0433 -1.02054,-0.006 -1.12448,-0.11025 z m 26.13706,-0.21121 c -1.04359,-0.46582 -2.12165,-1.63639 -2.63179,-2.85764 -0.31994,-0.76589 -0.41091,-2.04002 -0.41091,-5.75469 v -4.77099 h 1.17392 1.17392 l 0.0829,4.74403 c 0.0755,4.32336 0.13186,4.81019 0.63559,5.4901 1.32307,1.78586 4.43128,1.68454 5.52074,-0.17997 0.47691,-0.81618 0.55154,-1.46751 0.6291,-5.4901 l 0.088,-4.56406 h 1.16877 1.16877 v 4.44989 c 0,6.24202 -0.55903,7.7807 -3.23265,8.89753 -1.20785,0.50455 -4.27047,0.52504 -5.36631,0.0359 z m 29.40227,-0.02993 c -0.0912,-0.23765 -0.16581,-2.85832 -0.16581,-5.82371 v -5.39162 l -2.18281,-0.0768 -2.18281,-0.0768 v -0.92604 -0.92604 l 5.75468,-0.0713 5.75469,-0.0713 v 1.06349 1.06349 h -2.2438 -2.24379 l -0.0713,5.75469 -0.0713,5.75469 -1.09096,0.0797 c -0.81565,0.0596 -1.1328,-0.0293 -1.25677,-0.35237 z m 26.95398,0.08023 c -1.80433,-0.64317 -4.87069,-2.871947 -4.57321,-7.01611 0.15692,-2.18604 0.85668,-3.64473 2.36972,-4.93984 3.47727,-2.97642 9.28357,-1.92934 11.40372,2.05648 0.58051,1.091343 1.15731,4.627783 -0.12514,6.80934 -0.82994,1.41175 -2.12954,2.48112 -3.68018,3.02821 -1.25848,0.44402 -4.22736,0.47809 -5.39491,0.0619 z m 4.92943,-2.47927 c 2.32529,-1.175912 3.28453,-4.553692 1.50264,-7.05614 -1.66159,-2.33349 -5.9508,-2.27741 -7.64362,0.0999 -0.94399,1.32571 -1.04645,4.00389 -0.2004,5.23794 1.50473,2.19481 4.04039,2.88187 6.34138,1.71827 z"
       style="fill:#26324e;fill-opacity:1"
       id="path1"
       sodipodi:nodetypes="ssssscccccsccscscssssssssssssssssssssssssssssssssssscsssssssssssssscsssscssssscssssscccccccccccccccccccccccccccccccssssscccssscccscccsscsccccccccsssscccssccccccccccccccccccccccccccccccccccccccccccccccccssccssccssssscccccccsscscscccccccccscccccccsssssccsscssssscccsccccccccccccccccccccccccccscccccccccccccsccsssccccssscccsssssscccccccccccccsssssssssssssssss" />
  </g>
</svg>
