<svg xmlns="http://www.w3.org/2000/svg" width="1266.999" height="175.871" viewBox="0 0 335.227 46.533">
  <path d="M-91.112 121.827c-2.482-.493-5.196-1.78-5.196-2.464 0-.679 1.857-4.798 2.163-4.798.13 0 .825.298 1.545.663 4.237 2.147 10.004 1.857 9.115-.458-.218-.57-1.048-.89-4.663-1.803-3.701-.935-5.37-1.703-6.502-2.993-1.114-1.268-1.484-2.555-1.334-4.643.206-2.883 1.439-4.538 4.436-5.956 3.067-1.257 6.89-1.27 10.128-.579 2.11.492 3.897 1.343 3.897 1.857 0 .127-1.604 5.06-2.35 4.822a84 84 0 0 1-2.226-.815c-3.395-1.282-7.262-.729-7.014 1.003.108.754.974 1.127 4.792 2.064 3.585.88 5.433 1.75 6.524 3.073 1.838 2.23 1.73 5.902-.243 8.296-.937 1.137-3.364 2.453-5.25 2.848-1.853.388-5.562.332-7.822-.117m154.733.041c-2.049-.497-3.722-1.415-5.381-2.95-4.54-4.203-4.994-11.297-1.045-16.31 1.075-1.366 3.66-3.022 5.698-3.651 2.061-.637 6.105-.717 8.187-.163 2.5.666 5.914 2.943 5.914 3.945 0 .52-3.676 3.888-4.243 3.888-.235 0-.716-.313-1.069-.696-1.499-1.627-4.58-2.168-6.746-1.184-2.978 1.353-4.174 5.328-2.56 8.513 1.813 3.58 6.406 4.181 9.502 1.245.967-.917.83-.971 3.48 1.375.9.797 1.636 1.646 1.636 1.888 0 1.13-3.892 3.605-6.562 4.172-1.79.38-5.094.346-6.81-.071m23.232-.022c-4.295-1.207-7.418-4.069-8.567-7.853-.804-2.647-.64-6.326.38-8.538 2.1-4.555 6.263-7.03 11.822-7.03s9.72 2.475 11.821 7.03c1.018 2.207 1.184 5.892.384 8.527-1.025 3.374-3.67 6.056-7.38 7.48-1.974.758-6.412.96-8.46.384m5.38-5.819c2.991-.888 4.666-4.321 3.711-7.607-.735-2.53-2.885-4.174-5.456-4.174-5.435 0-7.792 7.108-3.583 10.803.52.457 1.272.903 1.67.99.397.088.84.2.986.248.58.193 1.421.111 2.672-.26m85.391 5.834c-3.463-.84-6.539-3.287-8.072-6.422-1.398-2.86-1.234-7.668-.031-10.207 1.473-3.11 4.42-5.52 7.882-6.447 2.05-.548 6.1-.461 8.16.175 3.474 1.073 6.39 3.703 7.623 6.873.695 1.788.954 5.54.505 7.324-1.066 4.23-4.445 7.518-8.93 8.686-1.806.47-5.237.479-7.137.018m5.39-5.843c3.244-.963 4.927-5.25 3.323-8.465-1.925-3.862-7.112-4.484-9.566-1.147-2.449 3.33-1.142 8.317 2.52 9.623 1.334.476 2.093.473 3.723-.01m21.598 5.843c-5.379-1.304-9.086-6.014-9.075-11.53.009-4.863 2.427-8.71 6.769-10.773 1.928-.916 2.243-.982 5.136-1.085 3.265-.117 5.044.208 7.22 1.318 1.232.629 3.355 2.534 3.355 3.011 0 .465-3.733 3.819-4.254 3.822-.229.002-.705-.31-1.058-.693-2.077-2.255-6.353-2.221-8.499.067-1.037 1.107-1.535 2.51-1.535 4.328 0 2.943 1.656 5.208 4.265 5.834 2.15.516 4.08-.014 5.913-1.623l.924-.812.655.515c1.652 1.299 3.589 3.232 3.589 3.582 0 .552-1.872 2.166-3.426 2.953-2.792 1.415-6.817 1.853-9.98 1.086M-74.083 98.69h17.991v5.556h-11.112v3.175h9.79v5.291h-9.79v3.705h11.642v5.291h-18.521zm21.563.132 5.453-.042 7.817 12.57 7.516-12.506 5.673-.022.138 22.903-6.488-.149-.265-10.467-5.107 8.32-3.316.03-5.07-8.265-.144 10.514h-6.345zm30.37 22.886c-.043-5.24-.048-5.977.057-22.886l5.689-.077c3.321-.044 6.398.045 7.394.215 3.182.545 5.686 2.203 6.983 4.624.47.879.568 1.508.57 3.705.002 2.3-.084 2.814-.657 3.936-.846 1.655-2.569 3.165-4.462 3.909-1.2.472-2.184.609-5 .696l-3.505.11v5.768zm12.688-12.013c1.073-.71 1.119-2.168.811-3.546-.382-1.708-1.528-1.672-4.217-1.84l-2.214-.138v6.223l2.448-.11c1.778-.08 2.646-.24 3.172-.59M1.19 98.822l5.689-.077c3.321-.044 6.398.045 7.394.215 3.18.545 5.681 2.2 6.986 4.624.474.882.569 1.5.569 3.705 0 2.469-.055 2.743-.82 4.1-.451.801-1.307 1.813-1.902 2.25-.595.436-1.09.89-1.098 1.01-.026.341 4.412 7.06 4.412 7.06h-7.323l-4.024-5.821H8.202v5.82H1.168Zm12.632 10.872c.418-.276.854-.906 1.027-1.483.254-.85.224-1.159-.197-2.021-.644-1.32-1.527-1.712-4.237-1.88l-2.213-.139v6.223l2.447-.11c1.78-.08 2.646-.24 3.173-.59m11.18-10.872h17.993v5.292l-11.245.142v3.153l9.922.144.151 5.16H31.75v3.704h11.64v5.291H24.865Zm81.023.091 5.733-.091 7.636 12.23 7.473-12.23h5.557l.138 22.886h-6.356l-.008-10.98-5.168 8.731-3.377.011-5.073-8.11-.144 10.348h-6.415zm37.182-.232h7.216l5.852 13.686 6.13-13.686h6.98l-9.796 23.027-6.828.015zm77.19.002 18.125.139v5.291l-11.245.143v3.153l9.922.144v5.027l-9.922.144v3.693h11.642v5.291h-18.521zm2.25-1.316c-.218-.353-.077-.564 2.08-3.11l1.85-2.182h5.702l1.997 2.312c2.608 3.02 2.604 3.244-.058 3.244h-2.055l-2.737-2.394-1.348 1.197c-1.34 1.19-1.358 1.197-3.308 1.197-1.078 0-2.033-.119-2.123-.264m-261.68-7.994c-.074-.193-.103-3.265-.064-6.828l.071-6.477 1.261-.081 1.262-.08-.071 6.827-.07 6.828-1.128.081c-.754.055-1.171-.035-1.261-.27m21.23.157c-.104-.104-.189-3.205-.189-6.892v-6.703h1.011c.989 0 1.088.096 4.564 4.41l3.553 4.41.133-4.344.132-4.343 1.261-.081 1.262-.08-.071 6.827-.07 6.828-.957.08c-.946.079-.994.031-4.69-4.59l-3.734-4.67-.072 4.59-.073 4.59-.935.078c-.515.044-1.02-.006-1.125-.11m31.826-.017c-.218-.076-.903-.375-1.521-.664-1.218-.569-1.452-1.253-.755-2.205.36-.494.401-.49 1.764.147 2.655 1.244 5.804.737 5.804-.934 0-.889-.709-1.324-3.393-2.084-3.586-1.015-4.429-1.803-4.395-4.11.023-1.523.658-2.525 2.073-3.271 2.228-1.174 7.567-.49 7.567.97 0 .324-.162.81-.36 1.08-.342.468-.411.47-1.46.05-1.857-.742-4.476-.508-5.122.46-.38.57-.193 1.427.4 1.815.33.216 1.61.655 2.843.975 2.587.67 3.791 1.469 4.233 2.807.624 1.89-.272 3.752-2.233 4.643-1.045.474-4.434.674-5.445.321m27.705.017c-.103-.104-.188-2.729-.188-5.833v-5.645h-4.498v-2.127l5.754.071 5.755.072v1.852l-2.178.077-2.177.076-.072 5.744-.07 5.745-1.069.078c-.587.043-1.153-.006-1.257-.11m23.624-6.7v-6.895h2.39l-.07 6.813-.07 6.813-1.125.082-1.125.081zm23.737 6.7c-.104-.104-.189-2.729-.189-5.833v-5.645h-4.498v-2.117H95.78v2.117h-4.487l-.072 5.755-.071 5.754-.936.08c-.514.042-1.02-.007-1.124-.111m26.137-.211c-1.044-.466-2.122-1.637-2.632-2.858-.32-.766-.41-2.04-.41-5.755v-4.77h2.347l.083 4.743c.076 4.324.132 4.81.636 5.49 1.323 1.786 4.43 1.685 5.52-.18.477-.816.552-1.467.63-5.49l.088-4.564h2.337v4.45c0 6.242-.559 7.781-3.233 8.898-1.207.504-4.27.525-5.366.036m29.402-.03c-.09-.238-.165-2.859-.165-5.824v-5.392l-2.183-.076-2.183-.077v-1.852l5.755-.071 5.754-.072v2.127h-4.487l-.072 5.755-.07 5.755-1.092.08c-.816.059-1.133-.03-1.257-.353m26.954.08c-1.804-.643-4.87-2.872-4.573-7.016.157-2.186.857-3.645 2.37-4.94 3.477-2.976 9.283-1.93 11.404 2.057.58 1.09 1.157 4.627-.126 6.809a6.94 6.94 0 0 1-3.68 3.028c-1.258.444-4.227.478-5.395.062m4.93-2.48c2.325-1.175 3.284-4.553 1.502-7.055-1.661-2.334-5.95-2.278-7.643.1-.944 1.325-1.047 4.003-.2 5.237 1.504 2.195 4.04 2.882 6.34 1.719" style="fill:#26324e;fill-opacity:1" transform="translate(96.308 -75.702)"/>
</svg>
