<svg xmlns="http://www.w3.org/2000/svg" xml:space="preserve" width="733.764" height="976.985" viewBox="0 0 194.142 258.494">
  <defs>
    <linearGradient id="b">
      <stop offset="0" style="stop-color:#ab2a59;stop-opacity:1"/>
      <stop offset="1" style="stop-color:#eb268e;stop-opacity:1"/>
    </linearGradient>
    <linearGradient id="a">
      <stop offset="0" style="stop-color:#353a7a;stop-opacity:1"/>
      <stop offset="1" style="stop-color:#229bdd;stop-opacity:1"/>
    </linearGradient>
    <linearGradient id="d" x1="443.733" x2="443.733" y1="677.465" y2="328.135" gradientTransform="scale(.26458)" gradientUnits="userSpaceOnUse" href="#a"/>
    <linearGradient id="c" x1="242.387" x2="242.387" y1="639.009" y2="240.533" gradientTransform="scale(.26458)" gradientUnits="userSpaceOnUse" href="#b"/>
  </defs>
  <path d="M-6.186 55.161c-.775-1.441-.302-3.128-.448-4.684.053-7.882.004-22.572.004-22.572.393-1.48 2.562-2.718 3.838-2.67 3.855-.104 7.712-.025 11.568-.05.618.79 1.647.875 1.37 2.017v14.284c-1.828 2.9-4.5 5.112-6.821 7.596-2.188 2.184-4.338 4.423-6.696 6.42-.853.529-2.231.643-2.815-.34" style="display:inline;fill:#219bdd;fill-opacity:1" transform="translate(41.658 -13.547)"/>
  <path d="M45.847 13.548c-3.631.397-5.45 4.333-8.19 6.373C16.47 40.82-4.73 61.715-25.61 82.925c-4.75 2.763.007 7.943 3.115 8.97 1.465-4.107 6.03-3.359 9.068-1.746 11.655-11.131 22.76-22.837 34.14-34.252C28.49 48.198 35.955 40.124 44.43 33.18c2.152-.364 1.231-2.462 1.418-3.996z" style="display:inline;fill:#ec268f;fill-opacity:1" transform="translate(41.658 -13.547)"/>
  <path d="M45.847 13.548v18.869c4.069 1.595 6.724 5.319 9.974 8.074 16.007 15.48 31.373 31.605 47.316 47.15 4.035 2.362 3.59-5.092 4.871-7.411 2.254-3.088 1.75-6.676-1.645-8.56-18.05-18.086-36.072-36.204-54.2-54.213-1.874-1.602-3.627-3.86-6.316-3.909" style="display:inline;fill:#229cdd;fill-opacity:1" transform="translate(41.658 -13.547)"/>
  <path d="M112.925 99.335c.42-2.328 2.439-10.192 4.16-16.206 3.685-12.875 6.221-18.314 9.6-20.584 1.035-.695 1.517-.857 2.374-.794.931.068 1.138.203 1.538 1.005.942 1.885.51 5.625-1.89 16.37l-1.322 5.92-3.094 5.59c-3.911 7.066-3.896 7.045-4.974 7.045-1.424 0-3.507.752-4.784 1.727-1.562 1.192-1.835 1.18-1.608-.073" style="display:inline;fill:#e8268d;fill-opacity:1" transform="translate(41.658 -13.547)"/>
  <path d="M103.015 109.328c0-.289 1.796-7.105 3.99-15.148 2.804-10.271 4.237-15.085 4.816-16.174 1.445-2.718 3.58-4.477 5.892-4.852.646-.105.912-.049.912.194 0 .318-6.806 25.458-7.965 29.42l-.52 1.78-3.295 2.652c-1.811 1.459-3.414 2.652-3.562 2.652s-.268-.236-.268-.524M94.707 115.215c-.335-.335-.128-1.682.746-4.855 2.335-8.476 5.597-15.34 8.562-18.02 1.05-.948 2.078-1.458 2.363-1.173.082.082.03.718-.117 1.413-.33 1.564-4.226 16.578-4.585 17.669-.201.61-1.015 1.292-3.535 2.96-1.8 1.19-3.346 2.093-3.434 2.006" style="display:inline;fill:#e8268c;fill-opacity:1" transform="translate(41.658 -13.547)"/>
  <path d="M-3.368 129.538c-1.731-2.443-5.93-.9-7.154-3.973-2.13-3.613-4.388-7.216-5.83-11.17-1.368-4.405-2.254-8.948-3.193-13.458-.407-2.797-.772-5.744-.105-8.51 1.427-2.03 4.18-.4 5.282 1.14 4.122 5.002 5.62 11.487 7.627 17.508a224 224 0 0 1 4.725 18.228c-.01.749-1.139 1.062-1.352.235M4.249 137.202c-2.91-1.718-4.605-4.803-4.995-8.092-2.258-8.443-4.736-16.828-6.784-25.326 2.561-1.956 5.161 1.6 6.299 3.647 2.21 4.634 2.956 9.788 4.606 14.624a686 686 0 0 1 4.504 16.812c-1.285 1.713-2.437-1.438-3.63-1.665M12.66 143.026c-1.61-1.086-3.654-2.079-3.745-4.305-1.565-5.54-2.909-11.137-4.268-16.729 1.504-2.026 3.444 1.766 4.46 2.928 3.791 5.688 5.549 12.399 7.276 18.92.03 2.645-2.822-.542-3.724-.814" style="display:inline;fill:#279ad7;fill-opacity:1" transform="translate(41.658 -13.547)"/>
  <path d="M101.361 241.468c-8.655-12.858-17.065-25.882-25.811-38.677-5.2 6.26-9.083 13.557-14.247 19.843-1.728-5.145-.583-13.77-1.245-20.124-.123-15.18-1.44-30.393-.504-45.554 2.06-12.933 9.66-25.61 21.765-31.365 11.188-6.8 23.175-12.911 32.425-22.338 5.106-9.453 13.152 2.524 6.147 7.82-4.458 6.115-9.865 11.454-14.84 17.125 6.753-6.917 15.192-12.985 19.132-22.05 1.942-5.865-5.454-5.455-.936-10.834 6.523-10.164 13.806-23.886 24.07-30.724 9.945-4.84 2.163 9.953-.703 13.155-5.233 7.942-8.944 16.757-11.766 25.793-4.323 6.117-7.46 12.879-9.676 20.026-2.543 8.629-11.629 11.92-18.013 17.129-7.608 5.863-16.793 10.451-22.037 18.777-1.665 7.445 1.104 15.084 2.198 22.465 4.095 20.214 9.89 40.038 15.059 59.975l-.222.145z" style="display:inline;fill:#e8268c;fill-opacity:1" transform="translate(41.658 -13.547)"/>
  <path d="M8.659 271.657c5.992-24.077 13.36-47.917 17.223-72.484 1.932-6.746-.62-13.563-6.583-17.334-9.465-8.226-20.677-14.159-30.25-22.202-5.07-7.37-5.71-17.03-11.689-23.956-3.777-7.415-5.308-15.873-10.003-22.91-2.803-6.252-9.874-12.333-8.355-19.4 7.367.244 12.2 7.614 16.628 12.813 5.15 6.722 9.91 13.814 13.878 21.291-7 5.179-.685 13.99 4.015 18.356 3.547 3.815 11.41 11.59 12.498 12.159-5.836-6.534-12.525-12.604-16.877-20.255-4.421-6.504 5.838-11.984 8.45-4.09 11.395 11.027 26.13 17.603 39.183 26.326 8.117 6.925 13.248 17.292 14.698 27.781.282 21.592-.455 43.208-1.43 64.774-3.4-3.106-5.769-8.136-8.655-12.11l-4.592-6.985c-9.29 12.87-18.46 25.828-27.869 38.61z" style="display:inline;fill:#279ad7;fill-opacity:1" transform="translate(41.658 -13.547)"/>
  <path d="M90.735 26.615c-7.46 3.872-12.432 10.943-18.582 16.452-11.259 11.336-22.64 22.56-33.478 34.303-3.005 5.257-.886 12.226 5.175 13.646 4.217 3.833 4.17 9.968 6.51 14.816 9.196 5.83 11.387 17.282 13.955 27.052 1.869 3.812 6.66 4.64 9.832 7.074 6.348 3.485 12.56 7.763 16.589 13.917v-29.128c-9.954-10.98-20.873-21.938-26.027-36.147-2.087-6.627.171-15.77 7.597-17.796 7.584-2.31 16.602 4.389 18.429 11.906z" style="font-variation-settings:&quot;wght&quot;700;fill:url(#c);stroke-width:.332031;stroke-linecap:round;stroke-linejoin:round" transform="translate(-3.23 -1.591)"/>
  <path d="M90.735 26.615V82.71c2.69-5.447 6.335-11.573 12.977-12.38 7.699-1.326 15.427 6.008 13.929 13.84-2.315 17.54-16.8 27.901-26.905 40.577v29.128c4.354 4.665 6.599 12.688 9.252 16.944 4.97-6.49-6.638-35.101 17.802-55.207 5.396-4.476 12.499-6.435 17.593-11.271 2.92-8.128 7.755-19.35 8.195-25.613-4.49-7.244-11.569-12.314-17.147-18.65-10.955-10.87-21.575-22.14-32.99-32.504-.807-.52-1.719-.973-2.706-.959" style="font-variation-settings:&quot;wght&quot;700;fill:url(#d);fill-opacity:1;stroke-width:.332031;stroke-linecap:round;stroke-linejoin:round" transform="translate(-3.23 -1.591)"/>
</svg>
