<?xml version="1.0" encoding="UTF-8" standalone="no"?>
<!-- Created with Inkscape (http://www.inkscape.org/) -->

<svg
   width="194.1418mm"
   height="258.49408mm"
   viewBox="0 0 194.1418 258.49408"
   version="1.1"
   id="svg1"
   xml:space="preserve"
   inkscape:version="1.4.3 (0d15f75, 2025-12-25)"
   sodipodi:docname="logo-drawing-inkscape.svg"
   xmlns:inkscape="http://www.inkscape.org/namespaces/inkscape"
   xmlns:sodipodi="http://sodipodi.sourceforge.net/DTD/sodipodi-0.dtd"
   xmlns:xlink="http://www.w3.org/1999/xlink"
   xmlns="http://www.w3.org/2000/svg"
   xmlns:svg="http://www.w3.org/2000/svg"><sodipodi:namedview
     id="namedview1"
     pagecolor="#ffffff"
     bordercolor="#000000"
     borderopacity="0.25"
     inkscape:showpageshadow="2"
     inkscape:pageopacity="0.0"
     inkscape:pagecheckerboard="0"
     inkscape:deskcolor="#d1d1d1"
     inkscape:document-units="mm"
     showgrid="false"
     inkscape:zoom="0.70710678"
     inkscape:cx="31.112698"
     inkscape:cy="309.00566"
     inkscape:window-width="1920"
     inkscape:window-height="1009"
     inkscape:window-x="-8"
     inkscape:window-y="-8"
     inkscape:window-maximized="1"
     inkscape:current-layer="layer1"
     showguides="true" /><defs
     id="defs1"><linearGradient
       id="linearGradient7"
       inkscape:collect="always"><stop
         style="stop-color:#ab2a59;stop-opacity:1;"
         offset="0"
         id="stop8" /><stop
         style="stop-color:#eb268e;stop-opacity:1;"
         offset="1"
         id="stop9" /></linearGradient><linearGradient
       id="linearGradient5"
       inkscape:collect="always"><stop
         style="stop-color:#353a7a;stop-opacity:1;"
         offset="0"
         id="stop5" /><stop
         style="stop-color:#229bdd;stop-opacity:1;"
         offset="1"
         id="stop7" /></linearGradient><linearGradient
       inkscape:collect="always"
       xlink:href="#linearGradient5"
       id="linearGradient6"
       x1="443.7334"
       y1="677.46509"
       x2="443.7334"
       y2="328.1351"
       gradientUnits="userSpaceOnUse"
       gradientTransform="scale(0.26458333)" /><linearGradient
       inkscape:collect="always"
       xlink:href="#linearGradient7"
       id="linearGradient9"
       x1="242.38672"
       y1="639.00946"
       x2="242.38672"
       y2="240.5332"
       gradientUnits="userSpaceOnUse"
       gradientTransform="scale(0.26458333)" /></defs><g
     inkscape:label="Layer 1"
     inkscape:groupmode="layer"
     id="layer1"
     transform="translate(41.657645,-13.547383)"><path
       style="display:inline;fill:#219bdd;fill-opacity:1"
       d="m -6.1859858,55.161456 c -0.7754023,-1.441653 -0.3024905,-3.128785 -0.4476861,-4.684568 0.053052,-7.882141 0.00354,-22.571825 0.00354,-22.571825 0.3933403,-1.48081 2.562003,-2.718013 3.8378818,-2.669483 3.8552416,-0.105026 7.7121946,-0.02548 11.5682256,-0.05036 0.618521,0.789743 1.6466037,0.874697 1.3699567,2.01694 v 14.283626 c -1.8277899,2.900626 -4.4999288,5.111759 -6.8209127,7.596394 -2.1875868,2.183686 -4.337819,4.422409 -6.6964087,6.420332 -0.8528508,0.52825 -2.2307343,0.64257 -2.8146004,-0.341051 z"
       id="path27"
       sodipodi:nodetypes="sccccccccss" /><path
       id="path25"
       style="display:inline;fill:#ec268f;fill-opacity:1"
       d="m 45.847115,13.548197 c -3.63142,0.396797 -5.449589,4.332708 -8.189448,6.372632 -21.188709,20.900461 -42.3881979,41.794576 -63.267172,63.004529 -4.749955,2.762626 0.0063,7.943095 3.11407,8.969802 1.465457,-4.107002 6.029537,-3.359114 9.068128,-1.746471 C -1.7721913,79.017542 9.3329414,67.31161 20.713199,55.896935 28.488928,48.198023 35.955016,40.12431 44.42883,33.179926 c 2.152213,-0.363525 1.231287,-2.46194 1.418282,-3.995909 10e-7,-5.21194 2e-6,-10.42388 3e-6,-15.63582 z" /><path
       id="path28"
       style="display:inline;fill:#229cdd;fill-opacity:1"
       d="m 45.847115,13.548197 c 0,6.289539 0,12.579077 0,18.868616 4.0684,1.59494 6.724346,5.319057 9.974012,8.073995 16.006455,15.480525 31.373364,31.604853 47.316133,47.149881 4.03519,2.361845 3.59034,-5.091928 4.87096,-7.411014 2.25333,-3.087259 1.74983,-6.675728 -1.64477,-8.559159 C 88.312935,53.58361 70.291,35.466003 52.163718,17.457185 50.289208,15.854948 48.535953,13.597069 45.847115,13.548197 Z" /><path
       style="display:inline;fill:#e8268d;fill-opacity:1"
       d="m 112.92454,99.334692 c 0.42037,-2.327941 2.43929,-10.192185 4.16036,-16.205729 3.68474,-12.874755 6.22128,-18.31347 9.60017,-20.584169 1.03449,-0.695205 1.51735,-0.85665 2.37402,-0.79375 0.93103,0.06836 1.13749,0.203273 1.538,1.005002 0.94175,1.885181 0.50996,5.62481 -1.89016,16.37014 l -1.32212,5.919098 -3.0939,5.590277 c -3.91097,7.066604 -3.89606,7.045485 -4.97434,7.045485 -1.42371,0 -3.50634,0.75176 -4.78361,1.726718 -1.56168,1.192056 -1.83463,1.179656 -1.60842,-0.07307 z"
       id="path23" /><path
       style="display:inline;fill:#e8268c;fill-opacity:1"
       d="m 103.01469,109.32772 c 0,-0.28829 1.79583,-7.10462 3.99073,-15.147397 2.80317,-10.271674 4.23615,-15.08495 4.81547,-16.174809 1.44469,-2.717883 3.5806,-4.476836 5.89169,-4.851873 0.64655,-0.104921 0.91252,-0.04827 0.91252,0.19436 0,0.3184 -6.806,25.457992 -7.96498,29.420539 l -0.52067,1.78019 -3.29407,2.65158 c -1.81174,1.45836 -3.41481,2.65157 -3.56238,2.65157 -0.14757,0 -0.26831,-0.23587 -0.26831,-0.52416 z"
       id="path21" /><path
       style="display:inline;fill:#e8268c;fill-opacity:1"
       d="m 94.707383,115.21472 c -0.335061,-0.33507 -0.128124,-1.68188 0.745927,-4.85472 2.334873,-8.47569 5.59658,-15.340218 8.56187,-18.019185 1.05027,-0.948851 2.07784,-1.459212 2.36329,-1.173764 0.0819,0.0819 0.0289,0.717847 -0.11773,1.413221 -0.32984,1.564025 -4.22565,16.577708 -4.58469,17.668478 -0.20113,0.61103 -1.01497,1.29233 -3.535287,2.95954 -1.800709,1.19119 -3.34573,2.09408 -3.43338,2.00643 z"
       id="path19" /><path
       style="display:inline;fill:#279ad7;fill-opacity:1"
       d="m -3.3678397,129.53759 c -1.7313987,-2.44257 -5.9300034,-0.9 -7.1545633,-3.97209 -2.130226,-3.61313 -4.387373,-7.21673 -5.829866,-11.16975 -1.36773,-4.40531 -2.253954,-8.94839 -3.192853,-13.45882 -0.406652,-2.797274 -0.77188,-5.744426 -0.105201,-8.510319 1.427068,-2.03002 4.180406,-0.398721 5.282332,1.14075 4.122291,5.001726 5.6201548,11.486569 7.626998,17.507809 1.8212625,6.00654 3.4159826,12.09168 4.7252943,18.22774 -0.011047,0.74872 -1.1390619,1.062 -1.352141,0.23468 z"
       id="path17" /><path
       style="display:inline;fill:#279ad7;fill-opacity:1"
       d="m 4.2488278,137.20223 c -2.9098178,-1.71801 -4.60474331,-4.80365 -4.99459798,-8.09237 -2.25796562,-8.44295 -4.73626862,-16.82821 -6.78440902,-25.32634 2.5615512,-1.95586 5.161669,1.59966 6.2992286,3.64783 2.20900417,4.63375 2.9563491,9.78742 4.6057098,14.6236 1.571457,5.58488 3.0752223,11.18886 4.5044198,16.81184 -1.2852803,1.71316 -2.4372167,-1.4379 -3.6303512,-1.66456 z"
       id="path15" /><path
       style="display:inline;fill:#279ad7;fill-opacity:1"
       d="m 12.659477,143.0263 c -1.609421,-1.08602 -3.6530241,-2.07897 -3.7440146,-4.30556 -1.5650729,-5.53883 -2.9094916,-11.13636 -4.2685043,-16.72833 1.5040181,-2.02657 3.4439177,1.76511 4.4605793,2.92769 3.7907156,5.688 5.5482416,12.3986 7.2758056,18.92007 0.02892,2.64504 -2.822228,-0.54215 -3.723866,-0.81387 z"
       id="path13" /><path
       style="display:inline;fill:#e8268c;fill-opacity:1"
       d="m 101.3613,241.46757 c -8.65553,-12.8576 -17.065434,-25.88115 -25.811733,-38.67698 -5.1993,6.26089 -9.082474,13.55785 -14.246158,19.84349 -1.728575,-5.14558 -0.583395,-13.7699 -1.24578,-20.12378 -0.122811,-15.17949 -1.439003,-30.39306 -0.503702,-45.55458 2.059249,-12.93248 9.659259,-25.61046 21.764925,-31.36475 11.188077,-6.79935 23.175518,-12.91116 32.424958,-22.3379 5.10663,-9.453361 13.15215,2.52371 6.14753,7.81982 -4.45814,6.11466 -9.86535,11.45412 -14.84127,17.12462 6.75364,-6.91641 15.19265,-12.98464 19.13335,-22.04926 1.94166,-5.86522 -5.45422,-5.45568 -0.93644,-10.834152 6.52331,-10.164358 13.80644,-23.885699 24.06995,-30.723884 9.94466,-4.839957 2.16332,9.95311 -0.70255,13.154505 -5.23376,7.942566 -8.94396,16.75683 -11.76678,25.793721 -4.32237,6.11686 -7.45911,12.87856 -9.67518,20.02511 -2.54381,8.62925 -11.62933,11.92012 -18.01369,17.12924 -7.607893,5.86333 -16.792678,10.45149 -22.037115,18.7776 -1.664553,7.44441 1.104606,15.08358 2.198344,22.46511 4.094615,20.21364 9.890931,40.0376 15.058851,59.97446 l -0.22219,0.14539 z"
       id="path11"
       sodipodi:nodetypes="ccccccccccccccccccccc" /><path
       style="display:inline;fill:#279ad7;fill-opacity:1"
       d="M 8.6587866,271.65676 C 14.650663,247.57962 22.018745,223.74029 25.881596,199.1732 c 1.932603,-6.74644 -0.620391,-13.56272 -6.58254,-17.33383 -9.4650482,-8.22618 -20.6772431,-14.15917 -30.249539,-22.20221 -5.070992,-7.36925 -5.710348,-17.03054 -11.68948,-23.9564 -3.776741,-7.41516 -5.307905,-15.8732 -10.003234,-22.90932 -2.802535,-6.25286 -9.87387,-12.33379 -8.354417,-19.400918 7.36706,0.244519 12.199469,7.614528 16.62729,12.813648 5.15019,6.72158 9.910912,13.81361 13.87876,21.29083 -7.000179,5.17853 -0.685181,13.98962 4.0147452,18.35576 3.5468744,3.81496 11.4097391,11.59045 12.4977128,12.15886 -5.83548092,-6.53374 -12.5251258,-12.60324 -16.876631,-20.25422 -4.421643,-6.50468 5.8381198,-11.98405 8.4490687,-4.09012 11.3959463,11.02719 26.1312563,17.60232 39.1833713,26.32529 8.116962,6.92537 13.248053,17.29275 14.69785,27.78191 0.28215,21.59163 -0.454551,43.20765 -1.430246,64.7734 -3.400142,-3.10597 -5.768135,-8.13617 -8.653861,-12.10923 -1.530838,-2.32862 -3.061675,-4.65723 -4.592513,-6.98585 -9.289392,12.8701 -18.459385,25.82801 -27.8685096,38.61066 z"
       id="path1" /></g><g
     inkscape:groupmode="layer"
     id="layer2"
     inkscape:label="Layer 2"
     transform="translate(-3.2297533,-1.5913371)"><path
       id="path2"
       style="font-variation-settings:'wght' 700;fill:url(#linearGradient9);stroke-width:0.332031;stroke-linecap:round;stroke-linejoin:round"
       d="M 90.734514,26.615429 C 83.274115,30.486505 78.303108,37.557933 72.152831,43.066689 60.894073,54.40284 49.513666,65.626978 38.675159,77.370471 c -3.005587,5.256251 -0.885899,12.225442 5.17454,13.645512 4.217626,3.833004 4.170476,9.968037 6.509899,14.815667 9.196505,5.83008 11.38703,17.28235 13.955823,27.05202 1.86853,3.81224 6.659497,4.64006 9.831261,7.07413 6.348814,3.48569 12.560835,7.76281 16.588864,13.91705 v -29.12794 c -9.953068,-10.98057 -20.872628,-21.9375 -26.02691,-36.147031 -2.086284,-6.62645 0.171483,-15.769525 7.597124,-17.795654 7.584715,-2.310822 16.601968,4.388664 18.429283,11.905971 0,0 -3.57e-4,-37.394657 -5.29e-4,-56.094767 z"
       sodipodi:nodetypes="ccccccccccccc" /><path
       id="path3"
       style="font-variation-settings:'wght' 700;fill:url(#linearGradient6);fill-opacity:1;stroke-width:0.332031;stroke-linecap:round;stroke-linejoin:round"
       d="m 90.734514,26.615429 5.29e-4,56.094767 c 2.689302,-5.447232 6.334688,-11.573111 12.977137,-12.379403 7.69835,-1.326689 15.42693,6.006887 13.92861,13.838509 -2.31488,17.541618 -16.79936,27.901918 -26.905244,40.577608 l 1.3e-5,29.12794 c 4.354807,4.66561 6.59941,12.6879 9.252589,16.94437 4.970092,-6.49023 -6.638241,-35.10128 17.801882,-55.20729 5.39574,-4.47584 12.49854,-6.43518 17.59263,-11.27126 2.92023,-8.128038 7.75517,-19.350072 8.19562,-25.612196 C 139.08743,71.484242 132.00923,66.414066 126.43097,60.077155 115.47625,49.208935 104.85572,37.938671 93.441568,27.57361 92.634301,27.054788 91.722009,26.600619 90.734514,26.615429 Z"
       sodipodi:nodetypes="ccccccccccccc" /></g></svg>
