<?xml version="1.0" encoding="UTF-8" standalone="no"?>
<!-- Created with Inkscape (http://www.inkscape.org/) -->

<svg
   width="194.1418mm"
   height="258.49408mm"
   viewBox="0 0 194.1418 258.49408"
   version="1.1"
   id="svg1"
   xml:space="preserve"
   inkscape:version="1.4.3 (0d15f75, 2025-12-25)"
   sodipodi:docname="logo-vertical.svg"
   xmlns:inkscape="http://www.inkscape.org/namespaces/inkscape"
   xmlns:sodipodi="http://sodipodi.sourceforge.net/DTD/sodipodi-0.dtd"
   xmlns:xlink="http://www.w3.org/1999/xlink"
   xmlns="http://www.w3.org/2000/svg"
   xmlns:svg="http://www.w3.org/2000/svg"><sodipodi:namedview
     id="namedview1"
     pagecolor="#ffffff"
     bordercolor="#000000"
     borderopacity="0.25"
     inkscape:showpageshadow="2"
     inkscape:pageopacity="0.0"
     inkscape:pagecheckerboard="0"
     inkscape:deskcolor="#d1d1d1"
     inkscape:document-units="mm"
     showgrid="false"
     inkscape:zoom="0.70710678"
     inkscape:cx="420.02143"
     inkscape:cy="473.05443"
     inkscape:window-width="1920"
     inkscape:window-height="1009"
     inkscape:window-x="-8"
     inkscape:window-y="-8"
     inkscape:window-maximized="1"
     inkscape:current-layer="layer1"
     showguides="true" /><defs
     id="defs1"><linearGradient
       id="linearGradient7"
       inkscape:collect="always"><stop
         style="stop-color:#ab2a59;stop-opacity:1;"
         offset="0"
         id="stop8" /><stop
         style="stop-color:#eb268e;stop-opacity:1;"
         offset="1"
         id="stop9" /></linearGradient><linearGradient
       id="linearGradient5"
       inkscape:collect="always"><stop
         style="stop-color:#353a7a;stop-opacity:1;"
         offset="0"
         id="stop5" /><stop
         style="stop-color:#229bdd;stop-opacity:1;"
         offset="1"
         id="stop7" /></linearGradient><linearGradient
       inkscape:collect="always"
       xlink:href="#linearGradient5"
       id="linearGradient6"
       x1="443.7334"
       y1="677.46509"
       x2="443.7334"
       y2="328.1351"
       gradientUnits="userSpaceOnUse" /><linearGradient
       inkscape:collect="always"
       xlink:href="#linearGradient7"
       id="linearGradient9"
       x1="242.38672"
       y1="639.00946"
       x2="242.38672"
       y2="240.5332"
       gradientUnits="userSpaceOnUse" /></defs><g
     inkscape:label="Layer 1"
     inkscape:groupmode="layer"
     id="layer1"
     transform="translate(41.657645,-13.547383)"><path
       style="display:inline;fill:#219bdd;fill-opacity:1"
       d="m -6.1859858,55.161456 c -0.529191,-0.807033 -0.5051585,0.218295 -0.3863299,-16.482493 0.041934,-5.893594 0.1927042,-11.157751 0.3350453,-11.698126 0.4645979,-1.763771 0.6103512,-1.795624 8.2164743,-1.795624 h 6.7967754 l 0.6849782,0.81405 0.6849785,0.81405 v 7.336233 7.336233 l -0.7624804,1.176279 c -0.4193639,0.646954 -3.4911537,3.884952 -6.8261996,7.195551 -5.9645954,5.920873 -6.0817865,6.01927 -7.1689206,6.01927 -0.9090607,0 -1.1884559,-0.126966 -1.5743212,-0.715423 z"
       id="path27" /><path
       id="path25"
       style="display:inline;fill:#ec268f;fill-opacity:1"
       d="m 45.847115,13.548197 c -0.784641,-0.01528 -1.52349,0.184677 -2.195214,0.601514 -1.099482,0.68228 -65.362701,64.494794 -69.261406,68.775647 -3.079182,3.381 -3.079256,3.384746 -0.02946,6.659025 1.273307,1.367029 2.50908,2.497934 2.746086,2.513024 0.240602,0.01532 0.570341,-0.309526 0.746725,-0.735355 0.173749,-0.419466 0.634617,-1.066515 1.024226,-1.438155 1.548476,-1.47706 3.490915,-1.625715 5.74642,-0.43925 0.835985,0.439753 1.712783,0.738762 1.948201,0.664042 0.448111,-0.142225 9.1345919,-8.851366 32.172197,-32.254879 17.150608,-17.423014 25.191842,-25.005506 26.998352,-25.458911 0.03307,-0.0083 0.06754,-0.01447 0.103869,-0.01809 z" /><path
       id="path28"
       style="display:inline;fill:#229cdd;fill-opacity:1"
       d="m 45.847115,13.548197 v 18.868616 c 1.689382,-0.168315 7.066116,4.8698 30.832744,28.784289 28.880511,29.060192 27.324671,27.540068 27.994161,27.339417 0.32443,-0.09723 0.74302,-0.32194 0.93069,-0.499195 0.18768,-0.177255 0.8763,-2.27781 1.53014,-4.667932 0.65384,-2.390122 1.54225,-5.102728 1.97404,-6.028572 0.43179,-0.925843 0.7871,-1.818812 0.7891,-1.984375 0.002,-0.165562 -6.17135,-6.432993 -13.719063,-13.927316 C 88.631211,53.938807 75.300656,40.589946 66.555412,31.76879 56.89141,22.020899 50.055506,15.332205 49.126502,14.715567 47.986833,13.959099 46.87754,13.568268 45.847115,13.548197 Z" /><path
       style="display:inline;fill:#e8268d;fill-opacity:1"
       d="m 112.92454,99.334692 c 0.42037,-2.327941 2.43929,-10.192185 4.16036,-16.205729 3.68474,-12.874755 6.22128,-18.31347 9.60017,-20.584169 1.03449,-0.695205 1.51735,-0.85665 2.37402,-0.79375 0.93103,0.06836 1.13749,0.203273 1.538,1.005002 0.94175,1.885181 0.50996,5.62481 -1.89016,16.37014 l -1.32212,5.919098 -3.0939,5.590277 c -3.91097,7.066604 -3.89606,7.045485 -4.97434,7.045485 -1.42371,0 -3.50634,0.75176 -4.78361,1.726718 -1.56168,1.192056 -1.83463,1.179656 -1.60842,-0.07307 z"
       id="path23" /><path
       style="display:inline;fill:#e8268c;fill-opacity:1"
       d="m 103.01469,109.32772 c 0,-0.28829 1.79583,-7.10462 3.99073,-15.147397 2.80317,-10.271674 4.23615,-15.08495 4.81547,-16.174809 1.44469,-2.717883 3.5806,-4.476836 5.89169,-4.851873 0.64655,-0.104921 0.91252,-0.04827 0.91252,0.19436 0,0.3184 -6.806,25.457992 -7.96498,29.420539 l -0.52067,1.78019 -3.29407,2.65158 c -1.81174,1.45836 -3.41481,2.65157 -3.56238,2.65157 -0.14757,0 -0.26831,-0.23587 -0.26831,-0.52416 z"
       id="path21" /><path
       style="display:inline;fill:#e8268c;fill-opacity:1"
       d="m 94.707383,115.21472 c -0.335061,-0.33507 -0.128124,-1.68188 0.745927,-4.85472 2.334873,-8.47569 5.59658,-15.340218 8.56187,-18.019185 1.05027,-0.948851 2.07784,-1.459212 2.36329,-1.173764 0.0819,0.0819 0.0289,0.717847 -0.11773,1.413221 -0.32984,1.564025 -4.22565,16.577708 -4.58469,17.668478 -0.20113,0.61103 -1.01497,1.29233 -3.535287,2.95954 -1.800709,1.19119 -3.34573,2.09408 -3.43338,2.00643 z"
       id="path19" /><path
       style="display:inline;fill:#279ad7;fill-opacity:1"
       d="m -3.3678397,129.53759 c -0.8975097,-0.96156 -2.4033191,-1.67858 -3.8817325,-1.84836 -0.6916895,-0.0794 -1.510765,-0.19484 -1.8201679,-0.25646 -0.4085082,-0.0814 -1.2009759,-1.25399 -2.8940279,-4.2824 -4.420516,-7.90708 -4.204728,-7.38506 -5.778101,-13.97807 -1.858126,-7.78624 -2.272811,-10.234912 -2.27385,-13.426877 -8.42e-4,-2.58668 0.217867,-3.448196 1.03456,-4.075233 0.921686,-0.707648 2.544508,-0.117593 4.262789,1.549942 2.279029,2.211723 4.109239,5.934575 6.6155404,13.456748 2.2326665,6.70091 6.0779318,21.19093 6.0779318,22.90332 0,0.83803 -0.5368574,0.821 -1.3429419,-0.0426 z"
       id="path17" /><path
       style="display:inline;fill:#279ad7;fill-opacity:1"
       d="m 4.2488278,137.20223 c -1.7154406,-1.39098 -3.28496286,-2.7858 -3.48782733,-3.0996 -0.20286446,-0.3138 -0.91994756,-2.65414 -1.59351799,-5.20075 -0.67357048,-2.54662 -2.16168508,-8.02349 -3.30692148,-12.17083 -2.3629378,-8.55712 -3.4417088,-12.73943 -3.4417088,-13.34326 0,-0.57332 1.1791132,-0.52882 2.5562649,0.0965 1.6328026,0.74137 3.2147019,2.4802 4.1972835,4.61367 0.74784193,1.62379 3.6504636,11.72286 7.7881183,27.09714 0.9948969,3.69674 1.1084902,4.57171 0.5901143,4.54545 -0.1005525,-0.005 -1.5863649,-1.14733 -3.3018054,-2.5383 z"
       id="path15" /><path
       style="display:inline;fill:#279ad7;fill-opacity:1"
       d="m 12.659477,143.0263 c -1.600729,-1.09272 -3.0058747,-2.08071 -3.122546,-2.19553 -0.2689919,-0.26474 -4.9395125,-18.47001 -4.9439487,-19.27108 -0.00428,-0.77276 0.4736198,-0.75321 1.5822786,0.0647 2.735087,2.01788 5.5324511,6.97176 7.8306481,13.86736 0.969388,2.90859 2.490027,8.50906 2.490027,9.17069 0,0.73709 -0.958941,0.32812 -3.836459,-1.63617 z"
       id="path13" /><path
       style="display:inline;fill:#e8268c;fill-opacity:1"
       d="m 101.3613,241.46757 c -0.24384,-0.32328 -6.109878,-9.14382 -13.035626,-19.60121 -6.925747,-10.45739 -12.674995,-19.04149 -12.776107,-19.07577 -0.210058,-0.0712 -2.139294,2.60701 -7.19204,9.98421 -1.943551,2.83765 -4.293005,6.2607 -5.221008,7.60677 -1.614738,2.34217 -2.455167,3.01213 -2.455167,1.95715 0,-0.26964 -0.116988,-3.75222 -0.259974,-7.73907 -0.25185,-7.02231 -0.873569,-30.61954 -1.198296,-45.4811 -0.23733,-10.86172 0.229289,-14.54497 2.670881,-21.08254 2.205196,-5.9046 5.670905,-11.44851 9.867764,-15.78493 2.073074,-2.14201 4.0305,-3.50609 9.557125,-6.66011 9.938787,-5.67203 19.499998,-11.70005 24.865948,-15.67712 4.28406,-3.17522 6.42702,-5.13206 8.2667,-7.54877 1.66923,-2.19279 2.62514,-2.831951 4.23538,-2.831951 3.26825,0 4.9186,3.992751 3.28832,7.955551 -1.31203,3.1892 -5.17255,7.9553 -15.0943,18.63507 -2.98559,3.21369 -2.80635,3.06599 2.72914,-2.24895 8.12215,-7.79856 12.09787,-12.35414 13.84945,-15.86944 0.79162,-1.58872 0.85415,-1.90835 0.85415,-4.36563 0,-2.30674 -0.0791,-2.77863 -0.60865,-3.63024 -0.33475,-0.538371 -1.01936,-1.232691 -1.52135,-1.542936 -0.50199,-0.310246 -0.9127,-0.659832 -0.9127,-0.776857 0,-0.359445 5.18593,-8.859941 7.73253,-12.674744 7.73534,-11.587527 14.07771,-18.46648 19.30685,-20.940272 1.73806,-0.82224 3.3204,-1.015517 3.86395,-0.471968 0.5297,0.529704 0.36053,2.731004 -0.3564,4.637397 -0.85359,2.269798 -2.64021,5.581528 -4.74932,8.803436 -4.86328,7.429243 -9.21433,16.504692 -10.83739,22.604701 -0.83844,3.151143 -1.50718,4.503683 -4.03315,8.157083 -2.40633,3.48035 -3.55871,5.90427 -5.50132,11.57155 -2.92631,8.53703 -4.39884,10.78054 -9.23268,14.0666 -1.32593,0.90138 -7.53047,5.27508 -13.78787,9.71935 -10.097703,7.17182 -11.719381,8.42354 -14.421058,11.13112 -3.748192,3.75639 -4.541943,5.09955 -4.707913,7.96659 -0.44302,7.65291 5.774314,35.91203 15.683321,71.28405 2.35946,8.42252 2.37943,8.51076 1.92594,8.51076 -0.19347,0 -0.55128,-0.2645 -0.79513,-0.58778 z"
       id="path11" /><path
       style="display:inline;fill:#000000"
       d="m 102.61781,130.75396 c 0.26339,-0.29104 0.41936,-0.52916 0.3466,-0.52916 -0.0728,0 -0.34779,0.23812 -0.61118,0.52916 -0.26339,0.29104 -0.41936,0.52917 -0.3466,0.52917 0.0728,0 0.34779,-0.23813 0.61118,-0.52917 z"
       id="path10" /><path
       style="display:inline;fill:#279ad7;fill-opacity:1"
       d="m 8.6587866,271.65676 c -0.081194,-0.21159 0.5862012,-3.03932 1.4830994,-6.28385 4.271534,-15.4523 5.245399,-19.11663 7.931578,-29.84395 6.784324,-27.09333 9.25715,-41.18006 7.992167,-45.52828 -1.233205,-4.23898 -8.064847,-10.06535 -26.23844543,-22.37747 -8.07766177,-5.47239 -10.12244957,-7.02989 -11.25520557,-8.57302 -1.275696,-1.73784 -2.440032,-4.35727 -4.227564,-9.51081 -1.946749,-5.61257 -3.435195,-8.77782 -5.456748,-11.60401 -2.379584,-3.32673 -3.243711,-5.07826 -4.326191,-8.76891 -1.870489,-6.37731 -5.001968,-13.02532 -9.670374,-20.52983 -4.766349,-7.66194 -6.193941,-10.579311 -6.518691,-13.321319 -0.471414,-3.980352 4.664098,-2.292742 11.069638,3.637658 1.702466,1.576181 6.326363,7.221961 9.359604,11.428081 3.678133,5.10037 10.706782,16.32198 10.706782,17.09395 0,0.19857 -0.467419,0.67036 -1.038708,1.04842 -0.571289,0.37806 -1.250157,1.12389 -1.508595,1.6574 -0.657867,1.35808 -0.781599,4.14165 -0.263343,5.92439 1.079157,3.71217 5.5622371,8.97031 16.779286,19.68017 3.5746376,3.41301 4.4585728,4.17895 2.543818,2.20424 -5.71847716,-5.89751 -14.1113847,-15.50237 -15.690426,-17.95616 -1.15449,-1.79404 -2.145948,-4.53877 -2.143474,-5.93393 0.0045,-2.51578 1.495896,-4.39665 3.6504912,-4.60368 1.8442541,-0.17721 3.0176435,0.45128 4.2715054,2.28788 2.1827119,3.19714 6.6878032,6.90241 15.2791694,12.56653 5.155308,3.39879 14.822786,9.2616 19.659859,11.92265 5.189514,2.85495 8.157765,5.3422 11.208755,9.39243 3.746659,4.97373 6.770849,11.24455 8.428099,17.47612 0.778669,2.92794 0.813706,3.2972 0.928895,9.78959 0.154167,8.68929 -1.170571,58.99162 -1.569461,59.59483 -0.327691,0.49554 -0.747809,-0.083 -7.323935,-10.08623 l -5.922439,-9.00885 -0.706402,0.98294 c -0.388521,0.54061 -6.631257,9.22801 -13.872748,19.30533 -7.241491,10.07731 -13.2217029,18.32239 -13.2893596,18.32239 -0.067657,0 -0.1894433,-0.17311 -0.2706368,-0.3847 z"
       id="path1" /></g><g
     inkscape:groupmode="layer"
     id="layer2"
     inkscape:label="Layer 2"
     transform="translate(-3.2297533,-1.5913371)"><path
       id="path2"
       style="font-variation-settings:'wght' 700;fill:url(#linearGradient9);stroke-width:1.25492;stroke-linecap:round;stroke-linejoin:round"
       d="m 342.9336,100.59375 c -0.37023,0.018 -0.72825,0.0597 -1.07617,0.125 -3.23113,0.60617 -11.80181,6.82455 -22.7168,16.48242 -19.09656,16.89712 -170.38181,170.15566 -172.9668,175.22266 -3.198,6.2686 -4.27643,12.33769 -4.32813,24.37305 -0.0644,14.99411 0.0267,15.2686 5.625,16.86523 7.3149,2.0862 13.48258,5.79907 19.34571,11.64649 7.18978,7.1705 11.10226,14.72051 15.24609,29.41406 1.7394,6.16771 4.05787,14.20997 5.15039,17.87109 l 1.98633,6.65626 5.70313,3.73242 c 19.25926,12.60287 33.22111,39.37658 44.88867,86.08008 l 4.48828,17.96875 8.19336,5.46875 c 4.5069,3.00781 13.61726,8.59465 20.24414,12.41406 39.45347,22.73907 39.25945,22.60917 50.77344,34.06836 7.83891,7.80161 14.14911,15.11149 19.44726,22.5918 V 471.48438 c -0.2464,-0.002 -1.13005,-0.85291 -1.96484,-1.89258 -0.83585,-1.041 -9.0419,-10.09372 -18.23633,-20.11718 -18.82562,-20.5231 -26.69203,-29.90091 -40.12695,-47.84376 -26.85931,-35.87162 -38.06598,-58.26794 -40.35547,-80.64648 -2.71027,-26.49157 10.2989,-48.01848 32.51367,-53.80469 5.86132,-1.52664 19.61138,-1.51655 25.6543,0.0195 6.59211,1.67569 14.87026,5.91753 19.89062,10.19141 8.91605,7.59031 14.20453,15.46501 20.30079,30.22656 0.85219,2.06351 1.71257,3.89396 2.32226,4.98828 z"
       transform="scale(0.26458333)" /><path
       id="path3"
       style="font-variation-settings:'wght' 700;fill:url(#linearGradient6);fill-opacity:1;stroke-width:1.25492;stroke-linecap:round;stroke-linejoin:round"
       d="m 342.9336,100.59375 0.002,212.01172 c 0.37423,0.67169 0.65544,1.06641 0.78125,1.06641 0.33079,0 1.71028,-3.1014 3.06641,-6.89258 4.82379,-13.48524 15.61983,-27.38865 26.10547,-33.61914 28.65535,-17.02679 62.24864,-4.41763 70.61914,26.50586 2.00134,7.39365 1.81759,22.43934 -0.38281,31.36719 -3.62916,14.72483 -10.97298,30.03952 -23.79493,49.62109 -15.65761,23.91218 -43.60932,58.02872 -66.89648,81.65039 -4.97732,5.04883 -9.25102,9.17969 -9.4961,9.17969 v 110.08985 c 2.72377,3.8456 5.18049,7.7369 7.43946,11.76171 5.63673,10.043 13.22468,27.1056 17.84375,40.12501 1.95584,5.51273 4.11348,10.87406 4.79492,11.91406 1.03735,1.5832 1.87478,1.89062 5.14648,1.89062 3.5419,0 3.98437,-0.20105 4.73243,-2.14843 0.56689,-1.47573 0.65489,-14.74634 0.28125,-42.38282 -0.72185,-53.39211 0.0843,-62.08559 7.80859,-84.20508 12.1112,-34.68181 30.81689,-63.32847 52.375,-80.20898 7.58151,-5.93651 7.60272,-5.9487 32.42188,-20.33008 32.54429,-18.85769 39.84375,-24.15394 39.84375,-28.9082 0,-2.73845 5.74319,-24.97744 9.08398,-35.17579 4.13546,-12.62423 8.32855,-22.85037 14.41602,-35.15625 3.37236,-6.81726 5.4092,-11.90134 5.4082,-13.49609 -0.003,-3.98532 -2.79826,-11.01263 -6.59766,-16.58594 -4.12546,-6.0516 -174.60903,-177.14701 -181.75586,-182.4082 -5.35136,-3.93945 -9.78473,-5.83443 -13.24609,-5.66602 z"
       transform="scale(0.26458333)" /></g></svg>
